<svg width="869" height="371" viewBox="0 0 869 371" fill="none" xmlns="http://www.w3.org/2000/svg">
<rect width="868.683" height="371" fill="#E5E9F0"/>
<path d="M514.866 310.451H482.381L462.112 227.112H466.998L446.729 310.451H414.063L386.826 191.007H417.863L432.251 274.799H431.889L454.33 191.007H474.689L497.221 274.799H496.859L511.246 191.007H542.284L514.866 310.451ZM559.122 310.451V236.161H586.63V310.451H559.122ZM573.238 220.868C568.894 220.868 565.214 219.36 562.198 216.344C559.182 213.267 557.674 209.618 557.674 205.395C557.674 201.172 559.182 197.522 562.198 194.446C565.275 191.309 568.955 189.74 573.238 189.74C576.073 189.74 578.667 190.464 581.02 191.912C583.372 193.3 585.273 195.17 586.72 197.522C588.168 199.875 588.892 202.499 588.892 205.395C588.892 209.618 587.354 213.267 584.277 216.344C581.201 219.36 577.521 220.868 573.238 220.868ZM656.255 236.161H687.382L652.364 271.632L691.002 310.451H659.15L630.466 280.59V310.451H602.957V185.94H630.466V262.04L656.255 236.161ZM699.272 310.451V236.161H726.78V310.451H699.272ZM713.388 220.868C709.044 220.868 705.364 219.36 702.348 216.344C699.332 213.267 697.824 209.618 697.824 205.395C697.824 201.172 699.332 197.522 702.348 194.446C705.425 191.309 709.105 189.74 713.388 189.74C716.223 189.74 718.817 190.464 721.17 191.912C723.522 193.3 725.423 195.17 726.87 197.522C728.318 199.875 729.042 202.499 729.042 205.395C729.042 209.618 727.504 213.267 724.427 216.344C721.351 219.36 717.671 220.868 713.388 220.868Z" fill="#2E3440"/>
<path d="M154.369 123.956C154.369 130.773 155.757 136.956 158.531 142.506C161.367 147.995 165.258 152.369 170.204 155.627C175.211 158.884 181.003 160.513 187.578 160.513C194.154 160.513 199.915 158.884 204.861 155.627C209.868 152.369 213.759 147.995 216.534 142.506C219.369 136.956 220.787 130.773 220.787 123.956C220.787 117.139 219.369 110.986 216.534 105.496C213.759 100.007 209.868 95.6332 204.861 92.3756C199.915 89.0577 194.154 87.3988 187.578 87.3988C181.003 87.3988 175.211 89.0577 170.204 92.3756C165.258 95.6332 161.367 100.007 158.531 105.496C155.757 110.986 154.369 117.139 154.369 123.956ZM126.227 123.956C126.227 115.269 127.766 107.185 130.842 99.7051C133.919 92.1645 138.232 85.589 143.782 79.9788C149.332 74.3685 155.847 69.995 163.327 66.8581C170.808 63.7211 178.891 62.1527 187.578 62.1527C196.386 62.1527 204.499 63.7211 211.919 66.8581C219.4 69.995 225.885 74.3685 231.374 79.9788C236.924 85.589 241.207 92.1645 244.223 99.7051C247.3 107.185 248.838 115.269 248.838 123.956C248.838 132.703 247.36 140.847 244.404 148.388C241.448 155.868 237.226 162.443 231.736 168.114C226.247 173.724 219.762 178.098 212.281 181.235C204.801 184.372 196.567 185.94 187.578 185.94C178.409 185.94 170.054 184.372 162.513 181.235C155.033 178.098 148.578 173.724 143.149 168.114C137.719 162.443 133.527 155.868 130.571 148.388C127.675 140.847 126.227 132.703 126.227 123.956ZM291.492 221.411H264.255V109.478H291.763V120.336C292.608 118.647 294.207 116.807 296.559 114.817C298.972 112.766 302.019 111.016 305.699 109.568C309.439 108.06 313.662 107.306 318.367 107.306C325.606 107.306 331.789 109.086 336.917 112.645C342.105 116.204 346.086 120.97 348.861 126.942C351.636 132.854 353.024 139.429 353.024 146.668C353.024 153.907 351.546 160.513 348.59 166.485C345.634 172.397 341.471 177.133 336.102 180.692C330.794 184.191 324.52 185.94 317.281 185.94C312.093 185.94 307.659 185.035 303.979 183.225C300.36 181.355 297.494 179.304 295.383 177.072C293.332 174.78 292.035 173 291.492 171.733V221.411ZM326.149 146.668C326.149 143.29 325.395 140.274 323.887 137.62C322.379 134.905 320.327 132.794 317.733 131.285C315.2 129.717 312.334 128.933 309.137 128.933C305.819 128.933 302.833 129.717 300.179 131.285C297.585 132.794 295.534 134.905 294.026 137.62C292.518 140.274 291.763 143.29 291.763 146.668C291.763 150.047 292.518 153.093 294.026 155.808C295.534 158.462 297.585 160.543 300.179 162.051C302.833 163.559 305.819 164.313 309.137 164.313C312.334 164.313 315.2 163.559 317.733 162.051C320.327 160.543 322.379 158.462 323.887 155.808C325.395 153.093 326.149 150.047 326.149 146.668ZM388.84 152.46C389.021 155.114 389.865 157.467 391.374 159.518C392.882 161.569 394.963 163.197 397.617 164.404C400.332 165.55 403.529 166.123 407.209 166.123C410.708 166.123 413.845 165.761 416.62 165.037C419.455 164.313 421.898 163.409 423.949 162.323C426.061 161.237 427.689 160.121 428.836 158.975L439.513 175.986C438.005 177.615 435.863 179.214 433.088 180.782C430.374 182.29 426.784 183.527 422.32 184.492C417.856 185.457 412.216 185.94 405.399 185.94C397.195 185.94 389.896 184.402 383.501 181.325C377.107 178.249 372.07 173.724 368.39 167.752C364.71 161.78 362.87 154.48 362.87 145.854C362.87 138.615 364.438 132.1 367.575 126.309C370.773 120.457 375.387 115.842 381.42 112.464C387.452 109.025 394.722 107.306 403.227 107.306C411.311 107.306 418.309 108.784 424.221 111.74C430.193 114.696 434.778 119.1 437.975 124.951C441.232 130.742 442.861 137.981 442.861 146.668C442.861 147.151 442.831 148.116 442.771 149.564C442.771 151.012 442.71 151.977 442.59 152.46H388.84ZM416.982 138.072C416.921 136.142 416.409 134.241 415.443 132.371C414.478 130.441 413.03 128.872 411.1 127.666C409.17 126.399 406.696 125.766 403.68 125.766C400.664 125.766 398.1 126.369 395.988 127.575C393.937 128.722 392.369 130.23 391.283 132.1C390.197 133.97 389.594 135.961 389.473 138.072H416.982ZM508.202 107.306C513.39 107.306 518.457 108.362 523.404 110.473C528.35 112.585 532.422 115.933 535.62 120.517C538.817 125.042 540.415 131.014 540.415 138.434V183.768H512.817V142.958C512.817 137.65 511.55 133.668 509.016 131.014C506.483 128.299 503.165 126.942 499.063 126.942C496.348 126.942 493.784 127.666 491.371 129.114C489.018 130.501 487.088 132.492 485.58 135.086C484.132 137.62 483.408 140.545 483.408 143.863V183.768H455.9V109.478H483.408V120.427C484.132 118.436 485.64 116.445 487.933 114.455C490.285 112.404 493.211 110.714 496.71 109.387C500.269 108 504.1 107.306 508.202 107.306Z" fill="#2E3440"/>
<rect x="565.549" y="49.7683" width="162.878" height="117.634" fill="#5E81AC"/>
<rect x="484.11" y="49.7683" width="72.3902" height="36.1951" fill="#D08770"/>
<rect x="266.939" y="49.7683" width="199.073" height="36.1951" fill="#C1C8D7"/>
<rect x="325.756" y="208.122" width="45.2439" height="36.1951" fill="#EBCB8B"/>
<rect x="122.159" y="203.598" width="117.634" height="108.585" fill="#BF616A"/>
<rect x="257.89" y="253.366" width="113.11" height="58.8171" fill="#A3BE8C"/>
</svg>
