<svg width="192" height="192" viewBox="0 0 192 192" fill="none" xmlns="http://www.w3.org/2000/svg">
<rect width="192" height="192" fill="#E5E9F0"/>
<path d="M37.9885 75.3231C37.9885 79.959 38.9321 84.1641 40.8192 87.9385C42.7474 91.6718 45.3936 94.6462 48.7577 96.8615C52.1628 99.0769 56.1013 100.185 60.5731 100.185C65.0449 100.185 68.9628 99.0769 72.3269 96.8615C75.7321 94.6462 78.3782 91.6718 80.2654 87.9385C82.1936 84.1641 83.1577 79.959 83.1577 75.3231C83.1577 70.6872 82.1936 66.5026 80.2654 62.7692C78.3782 59.0359 75.7321 56.0615 72.3269 53.8462C68.9628 51.5897 65.0449 50.4615 60.5731 50.4615C56.1013 50.4615 52.1628 51.5897 48.7577 53.8462C45.3936 56.0615 42.7474 59.0359 40.8192 62.7692C38.9321 66.5026 37.9885 70.6872 37.9885 75.3231ZM18.85 75.3231C18.85 69.4154 19.8962 63.9179 21.9885 58.8308C24.0808 53.7026 27.0141 49.2308 30.7885 45.4154C34.5628 41.6 38.9936 38.6256 44.0808 36.4923C49.168 34.359 54.6654 33.2923 60.5731 33.2923C66.5628 33.2923 72.0808 34.359 77.1269 36.4923C82.2141 38.6256 86.6244 41.6 90.3577 45.4154C94.1321 49.2308 97.0449 53.7026 99.0962 58.8308C101.188 63.9179 102.235 69.4154 102.235 75.3231C102.235 81.2718 101.229 86.8103 99.2192 91.9385C97.209 97.0256 94.3372 101.497 90.6038 105.354C86.8705 109.169 82.4603 112.144 77.3731 114.277C72.2859 116.41 66.6859 117.477 60.5731 117.477C54.3372 117.477 48.6551 116.41 43.5269 114.277C38.4397 112.144 34.05 109.169 30.3577 105.354C26.6654 101.497 23.8141 97.0256 21.8038 91.9385C19.8346 86.8103 18.85 81.2718 18.85 75.3231Z" fill="#2E3440"/>
<path d="M40.8192 87.9385L38.136 89.2801L38.1447 89.2977L38.1538 89.3151L40.8192 87.9385ZM48.7577 96.8615L47.1077 99.367L47.1147 99.3716L47.1217 99.3762L48.7577 96.8615ZM72.3269 96.8615L70.6909 94.3469L70.6839 94.3514L70.677 94.356L72.3269 96.8615ZM80.2654 87.9385L77.5938 86.5736L77.588 86.5851L80.2654 87.9385ZM80.2654 62.7692L77.588 64.1226L77.5939 64.1343L77.5999 64.1459L80.2654 62.7692ZM72.3269 53.8462L70.6558 56.3376L70.6733 56.3493L70.6909 56.3608L72.3269 53.8462ZM48.7577 53.8462L50.4077 56.3517L50.4148 56.3469L48.7577 53.8462ZM40.8192 62.7692L38.1538 61.3925L38.1478 61.4042L38.1419 61.4158L40.8192 62.7692ZM21.9885 58.8308L24.763 59.9719L24.7662 59.9641L21.9885 58.8308ZM30.7885 45.4154L28.6557 43.3056L28.6557 43.3056L30.7885 45.4154ZM77.1269 36.4923L75.9587 39.2555L75.9667 39.2589L77.1269 36.4923ZM90.3577 45.4154L88.2134 47.5135L88.2192 47.5194L88.2249 47.5252L90.3577 45.4154ZM99.0962 58.8308L96.3107 59.9449L96.3161 59.9584L96.3217 59.9719L99.0962 58.8308ZM99.2192 91.9385L102.009 93.041L102.012 93.0333L99.2192 91.9385ZM90.6038 105.354L92.7481 107.452L92.7537 107.446L92.7593 107.44L90.6038 105.354ZM77.3731 114.277L78.5333 117.044L78.5333 117.044L77.3731 114.277ZM43.5269 114.277L42.3667 117.044L42.3747 117.047L43.5269 114.277ZM30.3577 105.354L28.1908 107.429L28.1963 107.434L28.2019 107.44L30.3577 105.354ZM21.8038 91.9385L19.0032 93.0139L19.0084 93.0275L19.0138 93.041L21.8038 91.9385ZM34.9885 75.3231C34.9885 80.3781 36.0206 85.0494 38.136 89.2801L43.5025 86.5968C41.8435 83.2788 40.9885 79.5399 40.9885 75.3231H34.9885ZM38.1538 89.3151C40.3075 93.4851 43.295 96.8563 47.1077 99.367L50.4077 94.356C47.4921 92.436 45.1874 89.8585 43.4847 86.5618L38.1538 89.3151ZM47.1217 99.3762C51.0622 101.94 55.5813 103.185 60.5731 103.185V97.1846C56.6213 97.1846 53.2634 96.2139 50.3937 94.3469L47.1217 99.3762ZM60.5731 103.185C65.5643 103.185 70.0698 101.94 73.9769 99.367L70.677 94.356C67.8558 96.2138 64.5254 97.1846 60.5731 97.1846V103.185ZM73.963 99.3762C77.8251 96.8634 80.8244 93.4826 82.9428 89.2919L77.588 86.5851C75.9321 89.861 73.639 92.4289 70.6909 94.3469L73.963 99.3762ZM82.937 89.3033C85.1008 85.0678 86.1577 80.3881 86.1577 75.3231H80.1577C80.1577 79.5298 79.2864 83.2604 77.5938 86.5736L82.937 89.3033ZM86.1577 75.3231C86.1577 70.2585 85.1009 65.5941 82.9309 61.3925L77.5999 64.1459C79.2863 67.4111 80.1577 71.1159 80.1577 75.3231H86.1577ZM82.9428 61.4158C80.8244 57.2251 77.8251 53.8442 73.963 51.3315L70.6909 56.3608C73.639 58.2788 75.9321 60.8467 77.588 64.1226L82.9428 61.4158ZM73.998 51.3547C70.0888 48.7326 65.5756 47.4615 60.5731 47.4615V53.4615C64.5141 53.4615 67.8369 54.4469 70.6558 56.3376L73.998 51.3547ZM60.5731 47.4615C55.57 47.4615 51.0434 48.7327 47.1006 51.3454L50.4148 56.3469C53.2823 54.4468 56.6325 53.4615 60.5731 53.4615V47.4615ZM47.1077 51.3406C43.295 53.8514 40.3075 57.2226 38.1538 61.3925L43.4847 64.1459C45.1874 60.8492 47.4921 58.2716 50.4077 56.3517L47.1077 51.3406ZM38.1419 61.4158C36.0205 65.6125 34.9885 70.2686 34.9885 75.3231H40.9885C40.9885 71.1058 41.8437 67.3926 43.4966 64.1226L38.1419 61.4158ZM21.85 75.3231C21.85 69.7776 22.8303 64.6709 24.763 59.9719L19.214 57.6896C16.962 63.165 15.85 69.0532 15.85 75.3231H21.85ZM24.7662 59.9641C26.7145 55.1886 29.4328 51.0516 32.9212 47.5252L28.6557 43.3056C24.5954 47.41 21.447 52.2165 19.2108 57.6975L24.7662 59.9641ZM32.9212 47.5252C36.41 43.9985 40.5077 41.2438 45.241 39.2589L42.9206 33.7257C37.4795 36.0075 32.7157 39.2015 28.6557 43.3056L32.9212 47.5252ZM45.241 39.2589C49.9353 37.2903 55.0352 36.2923 60.5731 36.2923V30.2923C54.2956 30.2923 48.4006 31.4276 42.9206 33.7257L45.241 39.2589ZM60.5731 36.2923C66.1992 36.2923 71.3154 37.2925 75.9587 39.2555L78.2951 33.7291C72.8461 31.4254 66.9264 30.2923 60.5731 30.2923V36.2923ZM75.9667 39.2589C80.6972 41.2426 84.7696 43.994 88.2134 47.5135L92.502 43.3172C88.4791 39.206 83.731 36.0087 78.2871 33.7257L75.9667 39.2589ZM88.2249 47.5252C91.7091 51.0473 94.4039 55.1778 96.3107 59.9449L101.882 57.7166C99.6859 52.2273 96.555 47.4143 92.4905 43.3056L88.2249 47.5252ZM96.3217 59.9719C98.2543 64.6709 99.2346 69.7776 99.2346 75.3231H105.235C105.235 69.0532 104.123 63.165 101.871 57.6896L96.3217 59.9719ZM99.2346 75.3231C99.2346 80.9273 98.2891 86.0912 96.4262 90.8436L102.012 93.0333C104.17 87.5293 105.235 81.6163 105.235 75.3231H99.2346ZM96.4292 90.8359C94.5609 95.5637 91.9023 99.6994 88.4484 103.267L92.7593 107.44C96.7721 103.295 99.857 98.4875 102.009 93.041L96.4292 90.8359ZM88.4596 103.256C85.0158 106.775 80.9433 109.527 76.2129 111.51L78.5333 117.044C83.9772 114.761 88.7252 111.563 92.7481 107.452L88.4596 103.256ZM76.2129 111.51C71.5309 113.474 66.3307 114.477 60.5731 114.477V120.477C67.0411 120.477 73.0409 119.347 78.5333 117.044L76.2129 111.51ZM60.5731 114.477C54.6842 114.477 49.4 113.471 44.6792 111.507L42.3747 117.047C47.9103 119.35 53.9901 120.477 60.5731 120.477V114.477ZM44.6871 111.51C39.9595 109.528 35.9124 106.78 32.5135 103.268L28.2019 107.44C32.1876 111.559 36.92 114.759 42.3667 117.044L44.6871 111.51ZM32.5246 103.279C29.1077 99.7103 26.465 95.5708 24.5939 90.8359L19.0138 93.041C21.1633 98.4805 24.2231 103.285 28.1908 107.429L32.5246 103.279ZM24.6045 90.863C22.7776 86.1055 21.85 80.9347 21.85 75.3231H15.85C15.85 81.6088 16.8917 87.515 19.0032 93.0139L24.6045 90.863Z" fill="#E5E9F0"/>
<path d="M150.651 152.923H128.559L114.775 96.2462H118.098L104.313 152.923H82.0976L63.5745 71.6923H84.6822L94.4668 128.677H94.2207L109.482 71.6923H123.328L138.651 128.677H138.405L148.19 71.6923H169.298L150.651 152.923Z" fill="#2E3440"/>
<path d="M150.651 152.923V155.923H153.041L153.575 153.594L150.651 152.923ZM128.559 152.923L125.644 153.632L126.201 155.923H128.559V152.923ZM114.775 96.2462V93.2462H110.957L111.859 96.9551L114.775 96.2462ZM118.098 96.2462L121.013 96.9551L121.915 93.2462H118.098V96.2462ZM104.313 152.923V155.923H106.671L107.228 153.632L104.313 152.923ZM82.0976 152.923L79.1727 153.59L79.7047 155.923H82.0976V152.923ZM63.5745 71.6923V68.6923H59.8134L60.6496 72.3593L63.5745 71.6923ZM84.6822 71.6923L87.6389 71.1846L87.211 68.6923H84.6822V71.6923ZM94.4668 128.677V131.677H98.0258L97.4236 128.169L94.4668 128.677ZM94.2207 128.677L91.3228 127.901L90.3115 131.677H94.2207V128.677ZM109.482 71.6923V68.6923H107.18L106.584 70.9162L109.482 71.6923ZM123.328 71.6923L126.225 70.9133L125.628 68.6923H123.328V71.6923ZM138.651 128.677V131.677H142.565L141.549 127.898L138.651 128.677ZM138.405 128.677L135.449 128.169L134.846 131.677H138.405V128.677ZM148.19 71.6923V68.6923H145.661L145.233 71.1846L148.19 71.6923ZM169.298 71.6923L172.222 72.3635L173.064 68.6923H169.298V71.6923ZM150.651 149.923H128.559V155.923H150.651V149.923ZM131.474 152.214L117.69 95.5372L111.859 96.9551L125.644 153.632L131.474 152.214ZM114.775 99.2462H118.098V93.2462H114.775V99.2462ZM115.183 95.5372L101.398 152.214L107.228 153.632L121.013 96.9551L115.183 95.5372ZM104.313 149.923H82.0976V155.923H104.313V149.923ZM85.0225 152.256L66.4994 71.0254L60.6496 72.3593L79.1727 153.59L85.0225 152.256ZM63.5745 74.6923H84.6822V68.6923H63.5745V74.6923ZM81.7255 72.2L91.5101 129.185L97.4236 128.169L87.6389 71.1846L81.7255 72.2ZM94.4668 125.677H94.2207V131.677H94.4668V125.677ZM97.1185 129.453L112.38 72.4684L106.584 70.9162L91.3228 127.901L97.1185 129.453ZM109.482 74.6923H123.328V68.6923H109.482V74.6923ZM120.431 72.4713L135.754 129.456L141.549 127.898L126.225 70.9133L120.431 72.4713ZM138.651 125.677H138.405V131.677H138.651V125.677ZM141.362 129.185L151.147 72.2L145.233 71.1846L135.449 128.169L141.362 129.185ZM148.19 74.6923H169.298V68.6923H148.19V74.6923ZM166.374 71.0211L147.727 152.252L153.575 153.594L172.222 72.3635L166.374 71.0211Z" fill="#E5E9F0"/>
<rect x="108.308" y="34.2308" width="61.5385" height="33.8462" fill="#5E81AC"/>
<rect x="22.1538" y="123.462" width="49.2308" height="30.7692" fill="#BF616A"/>
<rect x="160.615" y="129.615" width="9.23077" height="24.6154" fill="#A3BE8C"/>
</svg>
